<svg id="Layer_1" data-name="Layer 1" xmlns="http://www.w3.org/2000/svg" viewBox="0 0 2048 804"><defs><style>.cls-1{fill:#59cbe8;}</style></defs><path class="cls-1" d="M740.65,176.28h44.24l-14.82,48.55H720.32Z"/><path class="cls-1" d="M820.52,232.24h51.9L870,242.53a65.34,65.34,0,0,1,20.44-10.05,85.37,85.37,0,0,1,25.47-3.82l-8.85,41.61a90.08,90.08,0,0,0-26.3,3.7q-12.19,3.72-17.7,10.41L849.94,347H796.13Z"/><path class="cls-1" d="M918.69,338.19q-13.52-12.44-13.51-33.48a68.51,68.51,0,0,1,1.67-15.07q6-27.74,25.47-44.36T981,228.66a54.19,54.19,0,0,1,18.41,3,37.34,37.34,0,0,1,13.4,7.77l1.67-7.18h53.81L1043.88,347H992l1.91-9.56A61.31,61.31,0,0,1,975.73,347a64,64,0,0,1-20.81,3.59Q932.2,350.62,918.69,338.19Zm72-32.05a26.77,26.77,0,0,0,9.68-7.89L1004,281a14.52,14.52,0,0,0-6.22-7.89A19.68,19.68,0,0,0,987,270.27q-9.57,0-16,5t-8.61,14.59a33.09,33.09,0,0,0-.72,6.45q0,6.46,4.06,9.57T978.6,309A27.24,27.24,0,0,0,990.68,306.14Z"/><path class="cls-1" d="M1084.06,399.88a77.12,77.12,0,0,1-19.37-6l7.17-34.2q17.46,8.13,42.33,8.13,13.63,0,20.81-5.5t9.56-16l2.87-11.48a66.49,66.49,0,0,1-18.77,9.68,65.54,65.54,0,0,1-20.92,3.47q-18.9,0-28.94-9.92t-10-26.67a62.4,62.4,0,0,1,1.43-13.15l13.87-66h53.81l-12.68,59.31a26.47,26.47,0,0,0-.71,6c0,3,.83,5.26,2.51,6.7s4.26,2.15,7.77,2.15q11.48,0,19.13-10.76l13.39-63.38h53.81L1198.61,338q-6.93,32-29.41,48.06T1107,402A123.92,123.92,0,0,1,1084.06,399.88Z"/><path class="cls-1" d="M748,595q-16.16-2.62-25.71-7.66V551a108.11,108.11,0,0,0,24.63,9.81,98.26,98.26,0,0,0,26.07,4.06,45.45,45.45,0,0,0,7.89-.47c1.59-.32,2.39-1,2.39-2.16,0-.79-.72-1.43-2.15-1.91a48.12,48.12,0,0,0-5.74-1.43q-8.61-1.68-15.31-3.59-21.76-6.69-30.73-15.43t-9-24.75q0-20.08,15.79-29.77t43.52-9.69a160,160,0,0,1,28.58,2.87q15.66,2.88,23.08,7.42v36.35q-7.17-5-20.33-8.73a87.64,87.64,0,0,0-23.44-3.71,35.83,35.83,0,0,0-7.89.72c-2.07.48-3.11,1.12-3.11,1.91s.88,1.52,2.63,2.15a51.82,51.82,0,0,0,8.37,1.92q11.25,2.14,12.68,2.63,15.78,4.07,24.27,9.44t11.72,12.56q3.22,7.17,3.23,18.17,0,17.46-15.54,27.87t-44.73,10.4A194.36,194.36,0,0,1,748,595Z"/><path class="cls-1" d="M871.35,582q-18.54-15.66-18.54-45.31t18.54-45.32q18.52-15.66,51-15.67a147.51,147.51,0,0,1,28.7,2.75q13.88,2.76,22.24,7.78v41.13a53.81,53.81,0,0,0-17.1-8.13,72.08,72.08,0,0,0-20.2-2.87q-12.45,0-20,5.26t-7.54,15.07q0,10,7.54,15.18T936,557a71.08,71.08,0,0,0,20.2-3,65.08,65.08,0,0,0,18.3-8.49v41.14q-8.61,5-22.48,8a140.79,140.79,0,0,1-29.66,3Q889.88,597.67,871.35,582Z"/><path class="cls-1" d="M998.69,417.35h53.81v70.79a54.46,54.46,0,0,1,34.91-12.44q25.11,0,36.71,12.56t11.6,34.79v71h-53.81V531c0-4.47-.92-7.85-2.75-10.17s-4.82-3.47-9-3.47q-11.71,0-17.69,10.77v66H998.69Z"/><path class="cls-1" d="M1178.4,581.88q-19.73-15.78-19.73-44.72,0-28.45,17.82-45t51.3-16.5q21.29,0,36.47,7.9t23,21.52a60.72,60.72,0,0,1,7.78,30.61v15.54h-85.14q6.93,12.43,31.33,12.44a164.6,164.6,0,0,0,23.56-1.79,96.45,96.45,0,0,0,20.92-5.15v32.29a118,118,0,0,1-23.56,6.22,169.65,169.65,0,0,1-28.57,2.39Q1198.13,597.67,1178.4,581.88Zm65.89-60q-2.86-12-17.46-12-14.11,0-17,12Z"/><path class="cls-1" d="M1343.17,590.13a52.35,52.35,0,0,1-21.28-21.4q-7.53-13.86-7.53-32,0-17.94,7.53-31.81a52.92,52.92,0,0,1,21.4-21.52q13.88-7.65,32.29-7.66a62.06,62.06,0,0,1,19.25,3,45.09,45.09,0,0,1,15,7.77V417.35h53.8V594.08h-51.89v-9.57a47.94,47.94,0,0,1-16.14,9.57,57.13,57.13,0,0,1-20,3.59Q1356.92,597.67,1343.17,590.13Zm58.71-36.94a18.92,18.92,0,0,0,7.9-7.9V528.08a18.92,18.92,0,0,0-7.9-7.9,23.59,23.59,0,0,0-11.48-2.87q-9.56,0-14.94,5t-5.38,14.58q0,9.57,5.38,14.35t14.94,4.79A23.59,23.59,0,0,0,1401.88,553.19Z"/><path class="cls-1" d="M1503.4,584q-12.08-13.63-12.08-36.11V479.29h53.81v61.94q0,14.84,12.68,14.83,11.48,0,16.74-10.77v-66h53.8V594.08h-51.89v-9.57a52.63,52.63,0,0,1-16.74,9.69,58.57,58.57,0,0,1-20.09,3.47Q1515.48,597.67,1503.4,584Z"/><path class="cls-1" d="M1657.29,417.35h53.8V594.08h-53.8Z"/><path class="cls-1" d="M1755,581.88q-19.73-15.78-19.73-44.72,0-28.45,17.81-45t51.3-16.5q21.29,0,36.47,7.9t23,21.52a60.71,60.71,0,0,1,7.77,30.61v15.54h-85.13q6.93,12.43,31.32,12.44a164.39,164.39,0,0,0,23.56-1.79,96.55,96.55,0,0,0,20.93-5.15v32.29a118,118,0,0,1-23.56,6.22,169.86,169.86,0,0,1-28.58,2.39Q1774.7,597.67,1755,581.88Zm65.88-60q-2.86-12-17.45-12-14.12,0-17,12Z"/><path class="cls-1" d="M241.69,326.76H523V367h40.19V246.38A40.31,40.31,0,0,0,523,206.19H502.93V166H462.74v40.19H302V166H261.78v40.19H241.69a40,40,0,0,0-40,40.19l-.2,281.33a40.17,40.17,0,0,0,40.19,40.19H382.36V527.71H241.69Zm0-80.38H523v40.19H241.69ZM600.19,453l-14.27,14.27-42.6-42.6,14.27-14.27a20,20,0,0,1,28.33,0l14.27,14.27A20,20,0,0,1,600.19,453Zm-71.14-14.07,42.6,42.61L465.15,588h-42.6V545.4Z"/></svg>